<svg xmlns="http://www.w3.org/2000/svg" version="1.1" xmlns:xlink="http://www.w3.org/1999/xlink" xmlns:svgjs="http://svgjs.dev/svgjs" width="2800" height="1800" preserveAspectRatio="none" viewBox="0 0 2800 1800"><g mask="url(&quot;#SvgjsMask1044&quot;)" fill="none"><rect width="2800" height="1800" x="0" y="0" fill="rgba(8, 8, 9, 1)"></rect><path d="M414.97 239.06 a569.66 569.66 0 1 0 1139.32 0 a569.66 569.66 0 1 0 -1139.32 0z" fill="rgba(37, 167, 173, 0.4)" class="triangle-float3"></path><path d="M1444.507,562.498C1576.316,568.421,1714.909,539.75,1789.608,430.99C1874.105,307.963,1903.25,138.913,1820.944,14.409C1743.924,-102.099,1583.889,-99.924,1444.507,-91.042C1324.621,-83.402,1204.607,-45.457,1142.908,57.617C1079.666,163.268,1086.099,296.506,1149.246,402.214C1210.8,505.256,1324.601,557.11,1444.507,562.498" fill="rgba(37, 167, 173, 0.4)" class="triangle-float3"></path><path d="M1827.224,734.244C1917.925,734.913,2018.073,725.22,2066.109,648.281C2116.227,568.007,2099.358,462.185,2045.782,384.176C1998.444,315.249,1910.838,301.133,1827.224,300.452C1741.962,299.758,1650.175,309.935,1602.412,380.566C1549.505,458.804,1543.697,565.097,1594.362,644.804C1642.169,720.015,1738.107,733.587,1827.224,734.244" fill="rgba(37, 167, 173, 0.4)" class="triangle-float3"></path><path d="M832.3257909566973 2102.574051235781L1163.7347906264436 1734.507068675537 795.6678080661995 1403.0980690057909 464.2588083964534 1771.165051566035z" fill="rgba(37, 167, 173, 0.4)" class="triangle-float2"></path><path d="M1343.96,1558.828C1464.648,1557.295,1582.569,1512.874,1647.938,1411.41C1719.097,1300.958,1746.773,1154.851,1675.216,1044.656C1607.812,940.858,1467.418,934.619,1343.96,943.297C1238.433,950.715,1143.33,998.179,1084.609,1086.172C1017.539,1186.676,968.176,1313.379,1026.3,1419.308C1085.927,1527.977,1220.017,1560.403,1343.96,1558.828" fill="rgba(37, 167, 173, 0.4)" class="triangle-float1"></path><path d="M1871.15 941.84 a524.29 524.29 0 1 0 1048.58 0 a524.29 524.29 0 1 0 -1048.58 0z" fill="rgba(37, 167, 173, 0.4)" class="triangle-float1"></path><path d="M505.212,1045.001C610.727,1048.909,724.972,1024.665,779.128,934.024C834.323,841.644,801.285,729.129,750.682,634.156C695.948,531.43,621.606,418.974,505.212,419.934C389.71,420.887,317.201,534.289,266.659,638.15C223.385,727.077,214.298,829.644,264.321,914.957C313.79,999.326,407.477,1041.381,505.212,1045.001" fill="rgba(37, 167, 173, 0.4)" class="triangle-float1"></path><path d="M1550.47 1643.88 a302.48 302.48 0 1 0 604.96 0 a302.48 302.48 0 1 0 -604.96 0z" fill="rgba(37, 167, 173, 0.4)" class="triangle-float1"></path><path d="M1480.8328662705349 1773.8536984868304L1327.343448888866 1393.9540593869353 947.443809788971 1547.4434767686041 1100.9332271706398 1927.3431158684991z" fill="rgba(37, 167, 173, 0.4)" class="triangle-float3"></path><path d="M3025.188374248754 1391.7227238142962L2695.826488067106 1238.1387539834188 2542.2425182362285 1567.5006401650667 2871.6044044178766 1721.084609995944z" fill="rgba(37, 167, 173, 0.4)" class="triangle-float3"></path></g><defs><mask id="SvgjsMask1044"><rect width="2800" height="1800" fill="#ffffff"></rect></mask><style>
                @keyframes float1 {
                    0%{transform: translate(0, 0)}
                    50%{transform: translate(-10px, 0)}
                    100%{transform: translate(0, 0)}
                }

                .triangle-float1 {
                    animation: float1 5s infinite;
                }

                @keyframes float2 {
                    0%{transform: translate(0, 0)}
                    50%{transform: translate(-5px, -5px)}
                    100%{transform: translate(0, 0)}
                }

                .triangle-float2 {
                    animation: float2 4s infinite;
                }

                @keyframes float3 {
                    0%{transform: translate(0, 0)}
                    50%{transform: translate(0, -10px)}
                    100%{transform: translate(0, 0)}
                }

                .triangle-float3 {
                    animation: float3 6s infinite;
                }
            </style></defs></svg>